# xmcd
#
# Track frame offsets: 
#        150
#        17467
#        41075
#        56191
#        76729
#        94008
#        112551
#        138556
#        152548
#        176871
#        188631
#        206182
#        229008
#
# Disc length: 3288 seconds
#
# Revision: 1
# Processed by: cddbd v1.5.2PL0 Copyright (c) Steve Scherf et al.
# Submitted via: ExactAudioCopy v1.0b1
#
DISCID=a00cd60d
DTITLE=Graveyard Train - The Drink The Devil And The Dance
DYEAR=2010
DGENRE=Zombie Cowboys
TTITLE0=The Devil's Drum
TTITLE1=Bit By A Dog
TTITLE2=Mummy
TTITLE3=The Bones Do The Work
TTITLE4=Run Billy Run
TTITLE5=Lay To The West
TTITLE6=The Ferryman
TTITLE7=Even Witches Like To Go Out Dancing
TTITLE8=Lets' March Boys
TTITLE9=Ghost Train
TTITLE10=A Tall Shadow
TTITLE11=Fueral
TTITLE12=Lover's Leap
EXTD=
EXTT0=
EXTT1=
EXTT2=
EXTT3=
EXTT4=
EXTT5=
EXTT6=
EXTT7=
EXTT8=
EXTT9=
EXTT10=
EXTT11=
EXTT12=
PLAYORDER=
